<svg id="check-mark" width="18" height="18" viewBox="0 0 18 18" fill="none" xmlns="http://www.w3.org/2000/svg">
<path d="M7.48828 12.7617L14.2383 6.01172L13.1836 4.92188L7.48828 10.6172L4.81641 7.94531L3.76172 9L7.48828 12.7617ZM3.69141 3.72656C5.16797 2.25 6.9375 1.51172 9 1.51172C11.0625 1.51172 12.8203 2.25 14.2734 3.72656C15.75 5.17969 16.4883 6.9375 16.4883 9C16.4883 11.0625 15.75 12.832 14.2734 14.3086C12.8203 15.7617 11.0625 16.4883 9 16.4883C6.9375 16.4883 5.16797 15.7617 3.69141 14.3086C2.23828 12.832 1.51172 11.0625 1.51172 9C1.51172 6.9375 2.23828 5.17969 3.69141 3.72656Z" fill="currentColor"/>
</svg>
